<svg width="34" height="34" viewBox="0 0 34 34" fill="none" xmlns="http://www.w3.org/2000/svg">
<path d="M26.4826 4.15434L23.0826 2.36073C20.0974 0.78748 18.6048 0 17 0C15.3952 0 13.9026 0.785772 10.9174 2.36073L10.3717 2.64942L25.5408 11.3595L32.368 7.92604C31.2698 6.67564 29.4984 5.74126 26.4826 4.15092V4.15434ZM33.5716 10.1877L26.775 13.6041V18.7902C26.775 19.13 26.6407 19.4558 26.4016 19.6961C26.1625 19.9364 25.8382 20.0713 25.5 20.0713C25.1618 20.0713 24.8375 19.9364 24.5984 19.6961C24.3593 19.4558 24.225 19.13 24.225 18.7902V14.8835L18.275 17.8729V34C19.4956 33.6942 20.8845 32.9631 23.0826 31.8033L26.4826 30.0096C30.1393 28.0811 31.9685 27.1177 32.9851 25.3838C34 23.6517 34 21.4943 34 17.1845V16.9846C34 13.751 34 11.7285 33.5716 10.1877ZM15.725 34V17.8746L0.4284 10.1877C1.51992e-07 11.7285 0 13.751 0 16.9812V17.1811C0 21.4943 -2.02656e-07 23.6517 1.0149 25.3838C2.0315 27.1177 3.8607 28.0828 7.5174 30.0114L10.9174 31.8033C13.1155 32.9631 14.5044 33.6942 15.725 34ZM1.632 7.92775L17 15.6488L22.7987 12.7363L7.6925 4.0621L7.5174 4.15434C4.5033 5.74297 2.7302 6.67735 1.632 7.92946V7.92775Z" fill="#E8E1C5"/>
</svg>
