<svg width="33" height="33" viewBox="0 0 33 33" fill="none" xmlns="http://www.w3.org/2000/svg">
<path d="M16.5 0.375C7.60796 0.375 0.375 7.60975 0.375 16.5C0.375 25.3902 7.60796 32.625 16.5 32.625C25.392 32.625 32.625 25.3902 32.625 16.5C32.625 7.60975 25.392 0.375 16.5 0.375ZM16.5 29.0417C9.58596 29.0417 3.95833 23.4158 3.95833 16.5C3.95833 9.58417 9.58596 3.95833 16.5 3.95833C23.414 3.95833 29.0417 9.58417 29.0417 16.5C29.0417 23.4158 23.414 29.0417 16.5 29.0417ZM17.7667 16.5L22.5075 11.7592C22.6745 11.5908 22.7683 11.3631 22.7683 11.1259C22.7683 10.8886 22.6745 10.661 22.5075 10.4925C22.339 10.3255 22.1114 10.2317 21.8741 10.2317C21.6369 10.2317 21.4092 10.3255 21.2407 10.4925L16.5 15.2333L11.7592 10.4907C11.5903 10.3276 11.364 10.2373 11.1291 10.2393C10.8942 10.2414 10.6695 10.3356 10.5035 10.5017C10.3374 10.6678 10.2431 10.8924 10.2411 11.1273C10.2391 11.3622 10.3294 11.5885 10.4925 11.7575L15.2333 16.5L10.4925 21.2407C10.3243 21.4087 10.2297 21.6366 10.2296 21.8744C10.2294 22.1121 10.3237 22.3401 10.4916 22.5084C10.6596 22.6766 10.8875 22.7712 11.1253 22.7713C11.363 22.7715 11.591 22.6772 11.7592 22.5092L16.5 17.7667L21.2407 22.5075C21.3233 22.5931 21.422 22.6615 21.5312 22.7086C21.6405 22.7557 21.758 22.7806 21.8769 22.7818C21.9959 22.783 22.1139 22.7605 22.224 22.7156C22.3342 22.6707 22.4343 22.6043 22.5185 22.5203C22.6027 22.4363 22.6694 22.3364 22.7146 22.2264C22.7598 22.1164 22.7826 21.9984 22.7818 21.8795C22.7809 21.7605 22.7564 21.643 22.7096 21.5336C22.6628 21.4242 22.5947 21.3253 22.5092 21.2425L17.7667 16.5Z" fill="#D34747"/>
</svg>
